<svg width="23" height="22" viewBox="0 0 23 22" fill="none" xmlns="http://www.w3.org/2000/svg">
<path d="M6.38889 18.3333H8.30556V15.8889H10.8611V14.0556H8.30556V11.6111H6.38889V14.0556H3.83333V15.8889H6.38889V18.3333ZM12.7778 17.4167H19.1667V15.5833H12.7778V17.4167ZM12.7778 14.3611H19.1667V12.5278H12.7778V14.3611ZM14.1833 9.71667L15.9722 8.00556L17.7611 9.71667L19.1028 8.43333L17.3139 6.66111L19.1028 4.95L17.7611 3.66667L15.9722 5.37778L14.1833 3.66667L12.8417 4.95L14.6306 6.66111L12.8417 8.43333L14.1833 9.71667ZM4.15278 7.57778H10.5417V5.74444H4.15278V7.57778ZM2.55556 22C1.85278 22 1.25116 21.7606 0.750695 21.2819C0.250231 20.8032 0 20.2278 0 19.5556V2.44444C0 1.77222 0.250231 1.19676 0.750695 0.718056C1.25116 0.239352 1.85278 0 2.55556 0H20.4444C21.1472 0 21.7488 0.239352 22.2493 0.718056C22.7498 1.19676 23 1.77222 23 2.44444V19.5556C23 20.2278 22.7498 20.8032 22.2493 21.2819C21.7488 21.7606 21.1472 22 20.4444 22H2.55556ZM2.55556 19.5556H20.4444V2.44444H2.55556V19.5556Z" fill="white"/>
</svg>
