<svg width="13" height="13" viewBox="0 0 13 13" fill="none" xmlns="http://www.w3.org/2000/svg">
<circle cx="6.5" cy="6.5" r="6" stroke="black"/>
<path d="M5.79448 10V5.158H7.19848V10H5.79448ZM6.49648 4.483C6.23848 4.483 6.02848 4.408 5.86648 4.258C5.70448 4.108 5.62348 3.922 5.62348 3.7C5.62348 3.478 5.70448 3.292 5.86648 3.142C6.02848 2.992 6.23848 2.917 6.49648 2.917C6.75448 2.917 6.96448 2.989 7.12648 3.133C7.28848 3.271 7.36948 3.451 7.36948 3.673C7.36948 3.907 7.28848 4.102 7.12648 4.258C6.97048 4.408 6.76048 4.483 6.49648 4.483Z" fill="black"/>
</svg>
