<svg width="22" height="14" viewBox="0 0 22 14" fill="none" xmlns="http://www.w3.org/2000/svg">
<path d="M10 14V0H12V14H10ZM0 11V10.425C0 10.025 0.108333 9.65833 0.325 9.325C0.541667 8.99167 0.841667 8.74167 1.225 8.575C1.65833 8.39167 2.10417 8.25 2.5625 8.15C3.02083 8.05 3.5 8 4 8C4.5 8 4.97917 8.05 5.4375 8.15C5.89583 8.25 6.34167 8.39167 6.775 8.575C7.15833 8.74167 7.45833 8.99167 7.675 9.325C7.89167 9.65833 8 10.025 8 10.425V11H0ZM14 11V10.425C14 10.025 14.1083 9.65833 14.325 9.325C14.5417 8.99167 14.8417 8.74167 15.225 8.575C15.6583 8.39167 16.1042 8.25 16.5625 8.15C17.0208 8.05 17.5 8 18 8C18.5 8 18.9792 8.05 19.4375 8.15C19.8958 8.25 20.3417 8.39167 20.775 8.575C21.1583 8.74167 21.4583 8.99167 21.675 9.325C21.8917 9.65833 22 10.025 22 10.425V11H14ZM4 7C3.45 7 2.97917 6.80417 2.5875 6.4125C2.19583 6.02083 2 5.55 2 5C2 4.45 2.19583 3.97917 2.5875 3.5875C2.97917 3.19583 3.45 3 4 3C4.55 3 5.02083 3.19583 5.4125 3.5875C5.80417 3.97917 6 4.45 6 5C6 5.55 5.80417 6.02083 5.4125 6.4125C5.02083 6.80417 4.55 7 4 7ZM18 7C17.45 7 16.9792 6.80417 16.5875 6.4125C16.1958 6.02083 16 5.55 16 5C16 4.45 16.1958 3.97917 16.5875 3.5875C16.9792 3.19583 17.45 3 18 3C18.55 3 19.0208 3.19583 19.4125 3.5875C19.8042 3.97917 20 4.45 20 5C20 5.55 19.8042 6.02083 19.4125 6.4125C19.0208 6.80417 18.55 7 18 7Z" fill="white"/>
</svg>
