<svg width="21" height="20" viewBox="0 0 21 20" fill="none" xmlns="http://www.w3.org/2000/svg">
<path d="M10.5024 13.5C9.50037 13.5 8.5394 13.1313 7.83087 12.4749C7.12234 11.8185 6.72429 10.9283 6.72429 10C6.72429 9.07174 7.12234 8.1815 7.83087 7.52513C8.5394 6.86875 9.50037 6.5 10.5024 6.5C11.5044 6.5 12.4654 6.86875 13.1739 7.52513C13.8824 8.1815 14.2805 9.07174 14.2805 10C14.2805 10.9283 13.8824 11.8185 13.1739 12.4749C12.4654 13.1313 11.5044 13.5 10.5024 13.5ZM18.5227 10.97C18.5659 10.65 18.5983 10.33 18.5983 10C18.5983 9.67 18.5659 9.34 18.5227 9L20.8004 7.37C21.0055 7.22 21.0595 6.95 20.9299 6.73L18.771 3.27C18.6415 3.05 18.35 2.96 18.1125 3.05L15.4247 4.05C14.8634 3.66 14.2805 3.32 13.6004 3.07L13.201 0.42C13.1578 0.18 12.9312 0 12.6613 0H8.34347C8.07361 0 7.84692 0.18 7.80374 0.42L7.40435 3.07C6.72429 3.32 6.14138 3.66 5.58007 4.05L2.89222 3.05C2.65474 2.96 2.36329 3.05 2.23375 3.27L0.0748404 6.73C-0.0654889 6.95 -0.000721403 7.22 0.204375 7.37L2.48203 9C2.43885 9.34 2.40647 9.67 2.40647 10C2.40647 10.33 2.43885 10.65 2.48203 10.97L0.204375 12.63C-0.000721403 12.78 -0.0654889 13.05 0.0748404 13.27L2.23375 16.73C2.36329 16.95 2.65474 17.03 2.89222 16.95L5.58007 15.94C6.14138 16.34 6.72429 16.68 7.40435 16.93L7.80374 19.58C7.84692 19.82 8.07361 20 8.34347 20H12.6613C12.9312 20 13.1578 19.82 13.201 19.58L13.6004 16.93C14.2805 16.67 14.8634 16.34 15.4247 15.94L18.1125 16.95C18.35 17.03 18.6415 16.95 18.771 16.73L20.9299 13.27C21.0595 13.05 21.0055 12.78 20.8004 12.63L18.5227 10.97Z" fill="white"/>
</svg>
